<svg width="266" height="74" viewBox="0 0 266 74" fill="none" xmlns="http://www.w3.org/2000/svg">
<path d="M229.562 29.75V59H224.25V14.9688H231.188L255 52.7188C254.75 48.6146 254.625 45.6562 254.625 43.8438V14.9688H260V59H252.812L229.25 21.5C229.292 22.875 229.354 24.25 229.438 25.625C229.521 27 229.562 28.375 229.562 29.75Z" fill="white"/>
<path d="M37.0938 54.125V59H2.03125V54.5312L28.8438 19.8438H4.3125V14.9688H35.625V19.3125L8.8125 54.125H37.0938ZM48.9 46.125L43.8375 59H37.65L55.6188 14.9688H62.4L80.0875 59H73.9938L68.9625 46.125H48.9ZM58.9313 19.4688C58.5771 20.6354 58.15 21.9375 57.65 23.375C57.1708 24.7917 56.7229 26.0417 56.3063 27.125L50.7125 41.4688H67.1813L61.525 26.9375C61.2333 26.2083 60.8479 25.1771 60.3688 23.8438C59.8896 22.5104 59.4104 21.0521 58.9313 19.4688ZM104.019 54.7812C106.894 54.7812 109.571 54.3438 112.05 53.4688C114.55 52.5938 116.571 51.4062 118.113 49.9062V41.9688H104.956V36.9688H123.613V52.1562C121.279 54.5312 118.415 56.375 115.019 57.6875C111.644 58.9792 107.977 59.625 104.019 59.625C99.4354 59.625 95.4875 58.6979 92.175 56.8438C88.8625 54.9896 86.3104 52.3542 84.5188 48.9375C82.7271 45.5 81.8313 41.4479 81.8313 36.7812C81.8313 29.6354 83.7479 24.1042 87.5813 20.1875C91.4146 16.2708 96.8 14.3125 103.738 14.3125C108.613 14.3125 112.571 15.1354 115.613 16.7812C118.654 18.4271 120.998 21.0625 122.644 24.6875L116.956 26.375C115.706 23.875 113.977 22.0521 111.769 20.9062C109.581 19.7604 106.852 19.1875 103.581 19.1875C98.4979 19.1875 94.6125 20.7292 91.925 23.8125C89.2375 26.875 87.8938 31.1979 87.8938 36.7812C87.8938 42.3438 89.3208 46.7396 92.175 49.9688C95.0292 53.1771 98.9771 54.7812 104.019 54.7812ZM138.044 40.7188V59H132.075V14.9688H152.794C157.752 14.9688 161.575 16.0833 164.262 18.3125C166.971 20.5208 168.325 23.6042 168.325 27.5625C168.325 30.8333 167.367 33.5833 165.45 35.8125C163.554 38.0417 160.929 39.4479 157.575 40.0312L170.075 59H163.2L151.762 40.7188H138.044ZM162.325 27.625C162.325 25.0625 161.45 23.1146 159.7 21.7812C157.971 20.4271 155.471 19.75 152.2 19.75H138.044V36H152.45C155.596 36 158.023 35.2708 159.731 33.8125C161.46 32.3333 162.325 30.2708 162.325 27.625ZM182.85 46.125L177.788 59H171.6L189.569 14.9688H196.35L214.038 59H207.944L202.913 46.125H182.85ZM192.881 19.4688C192.527 20.6354 192.1 21.9375 191.6 23.375C191.121 24.7917 190.673 26.0417 190.256 27.125L184.663 41.4688H201.131L195.475 26.9375C195.183 26.2083 194.798 25.1771 194.319 23.8438C193.84 22.5104 193.36 21.0521 192.881 19.4688ZM223.125 29.75V59H217.812V14.9688H224.75L248.562 52.7188C248.312 48.6146 248.188 45.6562 248.188 43.8438V14.9688H253.562V59H246.375L222.812 21.5C222.854 22.875 222.917 24.25 223 25.625C223.083 27 223.125 28.375 223.125 29.75Z" fill="white"/>
</svg>
