<svg width="100" height="28" viewBox="0 0 100 28" fill="none" xmlns="http://www.w3.org/2000/svg">
<path d="M85.9609 11.0312V22H83.9688V5.48828H86.5703L95.5 19.6445C95.4062 18.1055 95.3594 16.9961 95.3594 16.3164V5.48828H97.375V22H94.6797L85.8438 7.9375C85.8594 8.45312 85.8828 8.96875 85.9141 9.48438C85.9453 10 85.9609 10.5156 85.9609 11.0312Z" fill="#767676"/>
<path d="M13.9102 20.1719V22H0.761719V20.3242L10.8164 7.31641H1.61719V5.48828H13.3594V7.11719L3.30469 20.1719H13.9102ZM18.3375 17.1719L16.4391 22H14.1187L20.857 5.48828H23.4L30.0328 22H27.7477L25.8609 17.1719H18.3375ZM22.0992 7.17578C21.9664 7.61328 21.8062 8.10156 21.6187 8.64062C21.4391 9.17188 21.2711 9.64062 21.1148 10.0469L19.0172 15.4258H25.193L23.0719 9.97656C22.9625 9.70312 22.818 9.31641 22.6383 8.81641C22.4586 8.31641 22.2789 7.76953 22.0992 7.17578ZM39.007 20.418C40.0852 20.418 41.0891 20.2539 42.0187 19.9258C42.9562 19.5977 43.7141 19.1523 44.2922 18.5898V15.6133H39.3586V13.7383H46.3547V19.4336C45.4797 20.3242 44.4055 21.0156 43.132 21.5078C41.8664 21.9922 40.4914 22.2344 39.007 22.2344C37.2883 22.2344 35.8078 21.8867 34.5656 21.1914C33.3234 20.4961 32.3664 19.5078 31.6945 18.2266C31.0227 16.9375 30.6867 15.418 30.6867 13.668C30.6867 10.9883 31.4055 8.91406 32.843 7.44531C34.2805 5.97656 36.3 5.24219 38.9016 5.24219C40.7297 5.24219 42.2141 5.55078 43.3547 6.16797C44.4953 6.78516 45.3742 7.77344 45.9914 9.13281L43.8586 9.76562C43.3898 8.82812 42.7414 8.14453 41.9133 7.71484C41.093 7.28516 40.0695 7.07031 38.843 7.07031C36.9367 7.07031 35.4797 7.64844 34.4719 8.80469C33.4641 9.95312 32.9602 11.5742 32.9602 13.668C32.9602 15.7539 33.4953 17.4023 34.5656 18.6133C35.6359 19.8164 37.1164 20.418 39.007 20.418ZM51.7664 15.1445V22H49.5281V5.48828H57.2977C59.157 5.48828 60.5906 5.90625 61.5984 6.74219C62.6141 7.57031 63.1219 8.72656 63.1219 10.2109C63.1219 11.4375 62.7625 12.4688 62.0438 13.3047C61.3328 14.1406 60.3484 14.668 59.0906 14.8867L63.7781 22H61.2L56.9109 15.1445H51.7664ZM60.8719 10.2344C60.8719 9.27344 60.5438 8.54297 59.8875 8.04297C59.2391 7.53516 58.3016 7.28125 57.075 7.28125H51.7664V13.375H57.1688C58.3484 13.375 59.2586 13.1016 59.8992 12.5547C60.5477 12 60.8719 11.2266 60.8719 10.2344ZM68.5687 17.1719L66.6703 22H64.35L71.0883 5.48828H73.6312L80.2641 22H77.9789L76.0922 17.1719H68.5687ZM72.3305 7.17578C72.1977 7.61328 72.0375 8.10156 71.85 8.64062C71.6703 9.17188 71.5023 9.64062 71.3461 10.0469L69.2484 15.4258H75.4242L73.3031 9.97656C73.1937 9.70312 73.0492 9.31641 72.8695 8.81641C72.6898 8.31641 72.5102 7.76953 72.3305 7.17578ZM83.6719 11.0312V22H81.6797V5.48828H84.2812L93.2109 19.6445C93.1172 18.1055 93.0703 16.9961 93.0703 16.3164V5.48828H95.0859V22H92.3906L83.5547 7.9375C83.5703 8.45312 83.5938 8.96875 83.625 9.48438C83.6562 10 83.6719 10.5156 83.6719 11.0312Z" fill="#767676"/>
</svg>
